<?xml version="1.0" standalone="no"?><!DOCTYPE svg PUBLIC "-//W3C//DTD SVG 1.1//EN" "http://www.w3.org/Graphics/SVG/1.1/DTD/svg11.dtd"><svg t="1494495053792" class="icon" style="" viewBox="0 0 1024 1024" version="1.1" xmlns="http://www.w3.org/2000/svg" p-id="3888" xmlns:xlink="http://www.w3.org/1999/xlink" width="50" height="50"><defs><style type="text/css"></style></defs><path d="M512 375.850667c-94.236444 0-170.652444 76.401778-170.652444 170.638222S417.763556 717.112889 512 717.112889c94.250667 0 170.652444-76.387556 170.652444-170.624S606.250667 375.850667 512 375.850667zM227.456 162.289778 128.099556 162.289778l0 43.050667 99.356444 0L227.456 162.289778zM920.945778 247.893333 735.032889 247.893333c-14.108444-10.154667-30.848-28.074667-46.236444-59.847111-18.673778-38.556444-85.987556-39.751111-85.987556-39.751111L386.076444 148.295111c0 0-22.158222-5.504-48.241778 39.310222-17.664 30.350222-33.621333 49.152-48.668444 60.288L103.04 247.893333c-33.479111 0-60.586667 28.743111-60.586667 64.156444l0 497.180444c0 35.427556 27.107556 64.156444 60.586667 64.156444l817.905778 0c33.479111 0 60.600889-28.728889 60.600889-64.156444L981.546667 312.035556C981.546667 276.622222 954.410667 247.893333 920.945778 247.893333zM511.886222 760.035556c-117.788444 0-213.276444-95.516444-213.276444-213.333333s95.488-213.333333 213.276444-213.333333c117.774222 0 213.276444 95.516444 213.276444 213.333333S629.660444 760.035556 511.886222 760.035556zM817.720889 375.907556c-19.598222 0-35.498667-15.943111-35.498667-35.612444 0-19.683556 15.900444-35.626667 35.498667-35.626667 19.626667 0 35.527111 15.943111 35.527111 35.626667C853.248 359.964444 837.347556 375.907556 817.720889 375.907556z" p-id="3889" fill="#D2D2D2"></path></svg>